<svg xmlns="http://www.w3.org/2000/svg" width="202" height="97" fill="none" viewBox="0 0 202 97">
  <g clip-path="url(#a)">
    <path fill="#fff" d="M49.702 76.656V17.87H61.86c1.737 0 3.25.225 4.482.675 1.233.45 2.242 1.292 2.97 2.473.729 1.18 1.233 2.81 1.57 4.833.335 2.079.503 4.664.503 7.867 0 2.305-.056 4.215-.168 5.733-.112 1.461-.336 2.641-.56 3.484-.28.843-.616 1.518-1.009 1.967-.392.45-.896.843-1.457 1.18v.45c.785.45 1.401.955 1.962 1.405.504.45.896 1.18 1.176 2.08.28.955.449 2.247.56 3.933.113 1.686.169 3.99.169 6.857 0 3.147-.168 5.732-.504 7.811-.337 2.023-.897 3.653-1.625 4.834-.729 1.18-1.738 2.023-2.914 2.472-1.177.45-2.634.675-4.259.675H49.702v.056Zm10.982-32.877c.785 0 1.4-.112 1.961-.337.505-.225.897-.674 1.177-1.349.28-.674.448-1.63.56-2.81.112-1.236.168-2.81.168-4.777 0-1.46 0-2.585-.056-3.484 0-.9-.056-1.63-.112-2.192a33.229 33.229 0 0 0-.168-1.405c-.056-.337-.168-.674-.28-1.011-.28-.731-.672-1.237-1.177-1.518-.504-.28-1.12-.45-1.849-.45h-4.314V43.78h4.09Zm.729 26.19c.672 0 1.232-.113 1.68-.338.449-.225.841-.73 1.121-1.461.28-.73.448-1.743.56-3.035.113-1.293.169-2.979.169-5.114 0-2.417-.056-4.328-.168-5.733-.113-1.404-.337-2.472-.673-3.203-.336-.73-.728-1.18-1.177-1.405-.504-.225-1.12-.337-1.905-.337h-4.482v20.569h4.875v.056Zm28.352 6.687-1.288-16.017H82.2l-1.289 16.017h-6.948l5.827-58.785h11.6l5.435 58.785h-7.06Zm-3.53-44.791c-.112-1.18-.224-2.36-.336-3.484a744.201 744.201 0 0 1-.336-3.485h-.56c-.112 1.18-.225 2.36-.337 3.485a759.548 759.548 0 0 0-.336 3.484l-2.017 22.03h5.66l-1.738-22.03Zm32.948 44.791c-1.681-5.676-3.194-10.566-4.427-14.668-1.233-4.103-2.297-7.53-3.138-10.397-.84-2.866-1.513-5.17-2.073-6.969-.504-1.798-.953-3.26-1.289-4.44-.336-1.123-.616-2.023-.784-2.697-.168-.675-.336-1.236-.448-1.742h-.393c.056 1.63.056 3.372.056 5.226v35.687h-6.275V17.87h7.9c1.121 4.328 2.13 8.037 2.97 11.128.841 3.09 1.513 5.676 2.073 7.755.561 2.08.953 3.766 1.289 5.058.336 1.293.616 2.304.785 3.035.168.73.336 1.293.392 1.686.056.393.168.73.168 1.068h.392c-.056-.956-.056-1.967-.056-3.035V17.871h6.388v58.785h-3.53Zm8.517 0V17.87h18.099v6.97H134.48v18.49h11.15v6.687h-11.15V69.35h11.207v7.306H127.7Zm22.749 0V17.87h6.837v51.48h10.478v7.306h-17.315Zm20.733 0V17.87h6.836v51.48h10.478v7.306h-17.314ZM113.86 96.775v-12.87h1.961c.448 0 .784.057 1.008.226.225.168.393.393.561.786.056.169.112.394.168.618.056.225.056.506.112.9 0 .393.056.899.056 1.517v4.833c0 .618-.056 1.124-.056 1.518-.056.393-.056.674-.112.899a7.095 7.095 0 0 1-.168.562c-.112.393-.28.618-.561.787-.224.112-.56.224-1.064.224h-1.905Zm1.905-.955c.224 0 .392-.056.504-.112.112-.057.224-.225.28-.506.056-.169.056-.337.112-.506.056-.169.056-.45.056-.787s.056-.787.056-1.349v-5.732c0-.337-.056-.618-.056-.787-.056-.168-.056-.337-.112-.505a1.088 1.088 0 0 0-.28-.506c-.112-.113-.28-.169-.504-.169h-1.009V95.82h.953Zm4.034.955v-12.87h3.138v.956h-2.185v4.946h2.185v.899h-2.185v5.114h2.185v.955h-3.138Zm6.276 0-1.233-12.87h1.009c.168 1.855.28 3.372.392 4.665.112 1.293.224 2.36.28 3.26.056.899.112 1.573.168 2.079.056.506.056.9.112 1.18 0 .281.056.45.056.562v.281h.056v-.28c0-.113 0-.282.056-.563 0-.28.056-.674.112-1.18.057-.506.113-1.18.169-2.08.056-.842.168-1.966.28-3.259.112-1.293.224-2.866.392-4.72h.953l-1.289 12.869h-1.513v.056Zm4.763 0v-12.87h3.138v.956h-2.186v4.946h2.186v.899h-2.186v5.114h2.186v.955h-3.138Zm5.267 0v-12.87h.896v11.859h2.074v.955h-2.97v.056Zm7.901-.843c-.113.394-.281.675-.561.843-.224.169-.56.225-1.008.225-.449 0-.785-.056-1.009-.225-.224-.168-.392-.45-.56-.843a9.247 9.247 0 0 1-.168-.618c-.056-.225-.056-.562-.112-.955-.057-.394-.057-.9-.057-1.574V87.84c0-.619.057-1.124.057-1.518.056-.393.056-.73.112-.955.056-.225.112-.45.168-.618.112-.394.28-.675.56-.843.28-.169.56-.225 1.009-.225.448 0 .784.056 1.008.225.224.168.392.45.561.843.056.224.112.393.168.618.056.225.056.562.112.955.056.394.056.9.056 1.517v4.946c0 .618-.056 1.18-.056 1.574-.056.393-.056.73-.112.955-.056.225-.112.45-.168.618Zm-.785-.562c.056-.168.056-.337.112-.506.056-.168.056-.45.056-.843 0-.337.056-.843.056-1.404v-4.609c0-.562 0-1.068-.056-1.405 0-.337-.056-.618-.056-.787-.056-.168-.056-.337-.112-.562-.056-.224-.168-.45-.28-.505-.112-.113-.28-.169-.504-.169-.225 0-.393.056-.505.169a1.088 1.088 0 0 0-.28.505c-.056.169-.056.338-.112.562-.056.225-.056.45-.056.787s-.056.787-.056 1.405v4.609c0 .561 0 1.067.056 1.404 0 .338.056.619.056.787 0 .169.056.337.112.506.056.281.168.45.28.506.112.112.28.112.505.112.224 0 .392-.056.504-.112.112 0 .224-.169.28-.45Zm3.25 1.405v-12.87h2.073c.392 0 .673.057.897.226.224.168.392.45.448.899.056.28.112.505.112.73.056.225.056.45.056.73 0 .226.056.507.056.732v1.742c0 .28 0 .505-.056.787 0 .224-.056.505-.056.73-.056.225-.056.506-.112.73-.112.45-.224.731-.448.9-.224.168-.505.28-.953.28h-1.121v4.272h-.896v.112Zm1.905-5.17a.81.81 0 0 0 .392-.112c.112-.056.168-.225.224-.506.056-.169.113-.393.113-.562.056-.169.056-.394.056-.562V87.39c0-.225 0-.45-.056-.674 0-.225-.057-.394-.057-.562-.056-.169-.056-.394-.112-.562-.056-.281-.112-.45-.224-.506-.112-.056-.224-.112-.392-.112h-.953v6.631h1.009Zm8.573 5.17V85.536h-.056c0 .112-.056.224-.056.393 0 .168-.056.393-.112.73a22.75 22.75 0 0 0-.168 1.237c-.056.506-.168 1.124-.28 1.967-.112.787-.28 1.742-.448 2.866-.169 1.124-.393 2.473-.617 4.046h-.504c-.224-1.573-.448-2.922-.616-4.046-.169-1.124-.337-2.08-.449-2.922-.112-.787-.224-1.462-.28-1.967-.056-.506-.112-.9-.168-1.237-.056-.28-.056-.562-.112-.674 0-.169-.056-.281-.056-.394h-.056v11.24h-.841v-12.87h1.569c.168 1.462.336 2.698.449 3.71a48.39 48.39 0 0 0 .336 2.529c.112.674.168 1.236.224 1.63.056.393.112.674.112.899 0 .225.056.337.056.45v.224h.056v-.225c0-.056 0-.224.056-.45 0-.224.056-.505.112-.898.056-.394.112-.956.224-1.63a48.39 48.39 0 0 0 .336-2.53c.113-1.01.281-2.247.505-3.708h1.513v12.87h-.729Zm3.026 0v-12.87h3.138v.956h-2.185v4.946h2.185v.899h-2.185v5.114h2.185v.955h-3.138Zm8.573 0a481.457 481.457 0 0 1-.84-3.709c-.225-1.067-.449-1.91-.617-2.641-.168-.73-.28-1.349-.392-1.799-.112-.45-.168-.843-.28-1.18-.056-.28-.112-.562-.168-.73-.056-.169-.056-.337-.112-.506h-.056v10.565h-.841v-12.87h1.177c.28 1.237.504 2.249.672 3.148.168.843.336 1.63.448 2.192.112.618.225 1.067.281 1.46.056.394.112.675.168.9.056.225.056.394.112.506 0 .112.056.225.056.28h.056v-8.485h.84v12.87h-.504Zm3.754 0V84.861h-1.401v-.955h3.699v.955h-1.345v11.914h-.953ZM202 93.853h-22.133v-5.395H202v5.395Z"/>
    <path fill="#fff" d="M0 0v93.853h105.455v-5.395H5.379V5.395h191.242v79.466H202V0H0Z"/>
  </g>
  <defs>
    <clipPath id="a">
      <path fill="#fff" d="M0 0h202v97H0z"/>
    </clipPath>
  </defs>
</svg>
